<svg id="Capa_1" data-name="Capa 1" xmlns="http://www.w3.org/2000/svg" viewBox="0 0 75.53 75.53"><defs><style>.cls-1{fill:#fff;}</style></defs><path class="cls-1" d="M75.19,37.84a2.49,2.49,0,0,0-2.49,2.5v33.2H7.15V8h33a2.5,2.5,0,0,0,0-5H4.65a2.47,2.47,0,0,0-1.76.73A2.51,2.51,0,0,0,2.16,5.5V76a2.49,2.49,0,0,0,2.49,2.49H75.19A2.49,2.49,0,0,0,77.69,76V40.34a2.5,2.5,0,0,0-2.5-2.5" transform="translate(-2.16 -3)"/><path class="cls-1" d="M52.2,30.93a2.41,2.41,0,0,0-2.4-2.4,2.4,2.4,0,0,0-1.69.7l-8.19,8.14-3.94-4a2.4,2.4,0,0,0-3.4,3.39l3.93,4L28.32,48.9a2.4,2.4,0,0,0,3.39,3.41l8.19-8.15,3.93,4a2.4,2.4,0,0,0,3.4,0,2.38,2.38,0,0,0,.7-1.7,2.41,2.41,0,0,0-.69-1.69l-3.94-4,8.19-8.14a2.42,2.42,0,0,0,.71-1.71" transform="translate(-2.16 -3)"/><path class="cls-1" d="M77,3.76A2.51,2.51,0,0,0,75.19,3h-23a2.5,2.5,0,1,0,0,5H72.7v20.5a2.5,2.5,0,1,0,5,0v-23A2.47,2.47,0,0,0,77,3.76" transform="translate(-2.16 -3)"/><path class="cls-1" d="M65.84,25.34a10.41,10.41,0,0,0-10.4-10.41h0a10.37,10.37,0,0,0-7.25,2.94h0l-7.92,7.88a2.4,2.4,0,0,0,0,3.4,2.4,2.4,0,0,0,3.39,0l7.84-7.78h0a5.59,5.59,0,0,1,4-1.63h0A5.63,5.63,0,0,1,61,25.36v0h0a5.62,5.62,0,0,1-1.66,4l0,0-.22.22h0l-7.58,7.53a2.41,2.41,0,0,0,1.69,4.11,2.44,2.44,0,0,0,1.7-.7l7.84-7.8,0-.06h0a10.43,10.43,0,0,0,3-7.3Z" transform="translate(-2.16 -3)"/><path class="cls-1" d="M18.49,56.16h0Zm.28,0a5.62,5.62,0,0,1,1.66-4h0l7.83-7.79a2.41,2.41,0,0,0,.71-1.7,2.36,2.36,0,0,0-.7-1.69,2.39,2.39,0,0,0-3.39,0l-7.84,7.78h0A10.4,10.4,0,0,0,14,56.14v0h0a10.43,10.43,0,0,0,10.4,10.43h0a10.38,10.38,0,0,0,7.28-3l0,0h0l7.84-7.79a2.38,2.38,0,0,0,.71-1.7,2.41,2.41,0,0,0-2.39-2.4h-.06a2.4,2.4,0,0,0-1.65.69l-7.55,7.5h0l-.29.29a5.6,5.6,0,0,1-4,1.64h0a5.63,5.63,0,0,1-5.61-5.65Z" transform="translate(-2.16 -3)"/></svg>