<?xml version="1.0" standalone="no"?>
<!DOCTYPE svg PUBLIC "-//W3C//DTD SVG 20010904//EN"
 "http://www.w3.org/TR/2001/REC-SVG-20010904/DTD/svg10.dtd">
<svg version="1.0" xmlns="http://www.w3.org/2000/svg"
 width="917.000000pt" height="1042.000000pt" viewBox="0 0 917.000000 1042.000000"
 preserveAspectRatio="xMidYMid meet">

<g transform="translate(0.000000,1042.000000) scale(0.100000,-0.100000)"
fill="#000000" stroke="none">
<path d="M1588 7567 c-14 -12 -31 -32 -37 -44 -8 -15 -11 -675 -11 -2318 0
-2546 -5 -2346 65 -2379 30 -14 317 -16 2980 -16 3200 0 2980 -4 3019 52 14
20 16 256 16 2341 l0 2319 -34 34 -34 34 -2968 0 -2969 0 -27 -23z m552 -422
c60 -31 78 -100 41 -161 -57 -93 -201 -47 -201 64 0 44 14 69 53 92 38 24 68
25 107 5z m440 0 c81 -42 78 -160 -6 -200 -74 -35 -154 17 -154 100 0 88 83
140 160 100z m456 -16 c45 -42 48 -116 8 -160 -10 -11 -34 -24 -54 -30 -92
-28 -170 73 -125 161 32 62 121 76 171 29z m4374 -2359 l0 -1730 -2825 0
-2825 0 0 1730 0 1730 2825 0 2825 0 0 -1730z"/>
<path d="M1980 4770 l0 -1520 1300 0 1300 0 0 442 0 441 230 858 c127 472 230
863 230 868 0 7 -56 11 -164 11 l-165 0 -15 -52 c-8 -29 -37 -136 -64 -238
l-50 -185 -1 448 -1 447 -1300 0 -1300 0 0 -1520z"/>
<path d="M5232 5466 l3 -187 425 -245 c234 -135 428 -249 432 -252 4 -4 -189
-119 -427 -257 l-435 -250 0 -183 c0 -151 2 -183 14 -180 7 2 302 170 655 373
l641 370 -2 124 -3 123 -640 370 c-352 204 -646 372 -653 375 -10 4 -12 -33
-10 -181z"/>
</g>
</svg>
